<mxfile host="Electron" modified="2024-02-23T14:21:05.712Z" agent="Mozilla/5.0 (X11; Linux x86_64) AppleWebKit/537.36 (KHTML, like Gecko) draw.io/23.1.5 Chrome/120.0.6099.109 Electron/28.1.0 Safari/537.36" etag="ytzXiMujGDRUgXxFghGk" version="23.1.5" type="device">
  <diagram name="Arquitetura" id="mP3Fc1pjOxM6ujIy9Wsg">
    <mxGraphModel dx="1195" dy="698" grid="1" gridSize="10" guides="1" tooltips="1" connect="1" arrows="1" fold="1" page="1" pageScale="1" pageWidth="827" pageHeight="1169" math="0" shadow="0">
      <root>
        <mxCell id="0" />
        <mxCell id="1" parent="0" />
        <mxCell id="vEnjAo9VtHNqRXpmLjMI-1" value="Arquitetura da Aplicação" style="text;html=1;align=center;verticalAlign=middle;whiteSpace=wrap;rounded=0;" vertex="1" parent="1">
          <mxGeometry x="84" y="50" width="660" height="30" as="geometry" />
        </mxCell>
        <mxCell id="vEnjAo9VtHNqRXpmLjMI-2" value="1 - Controllers&lt;br&gt;Implementação dos controllers REST" style="text;html=1;align=center;verticalAlign=middle;whiteSpace=wrap;rounded=0;" vertex="1" parent="1">
          <mxGeometry x="100" y="60" width="300" height="130" as="geometry" />
        </mxCell>
        <mxCell id="vEnjAo9VtHNqRXpmLjMI-3" value="2 - Services&lt;br&gt;Implementação das regras de negócio" style="text;html=1;align=center;verticalAlign=middle;whiteSpace=wrap;rounded=0;" vertex="1" parent="1">
          <mxGeometry x="450" y="60" width="300" height="130" as="geometry" />
        </mxCell>
        <mxCell id="vEnjAo9VtHNqRXpmLjMI-4" value="3 - Repository&lt;br&gt;Camada de acesso ao banco de dados" style="text;html=1;align=center;verticalAlign=middle;whiteSpace=wrap;rounded=0;" vertex="1" parent="1">
          <mxGeometry x="264" y="150" width="300" height="130" as="geometry" />
        </mxCell>
        <mxCell id="vEnjAo9VtHNqRXpmLjMI-5" value="4 - Testes&lt;br&gt;Testes na controller simulando requisições&lt;br&gt;Testes na Service e Repository para simular situações" style="text;html=1;align=center;verticalAlign=middle;whiteSpace=wrap;rounded=0;" vertex="1" parent="1">
          <mxGeometry x="100" y="360" width="300" height="130" as="geometry" />
        </mxCell>
        <mxCell id="vEnjAo9VtHNqRXpmLjMI-6" value="5 - Logs&lt;br&gt;Eventos ocorridos na controller e erros que houveram" style="text;html=1;align=center;verticalAlign=middle;whiteSpace=wrap;rounded=0;" vertex="1" parent="1">
          <mxGeometry x="450" y="360" width="300" height="130" as="geometry" />
        </mxCell>
      </root>
    </mxGraphModel>
  </diagram>
</mxfile>
